<svg xmlns="http://www.w3.org/2000/svg" version="1.1" viewBox="-5.0 -10.0 110.0 135.0">
 <path d="m90.312 50.211c0 1.6992-1.3555 3.0039-4.0625 5.6211-4.5703 4.4102-11.016 10.508-16.125 14.863-3.4883 2.9766-7.875 6.4297-11.93 9.543-5.1719 3.9688-7.7578 5.9531-9.9648 4.9062-2.2109-1.0469-2.3125-4.3203-2.5156-10.875-0.082032-2.6719-0.16406-5.5312-0.23828-8.4336-4.1133 0.20312-8.7305 0.375-12.477 0.375-4.7188 0-10.832-0.27734-15.566-0.53906-3.4961-0.19141-5.2461-0.28906-6.3398-1.4453s-1.0938-2.9258-1.0938-6.4648v-14.102c0-3.5391 0-5.3086 1.0938-6.4648s2.8438-1.2539 6.3398-1.4453c4.7344-0.26172 10.848-0.53906 15.566-0.53906 3.7383 0 8.3438 0.17187 12.453 0.375 0.078125-3.2422 0.16797-6.457 0.26172-9.4336 0.20312-6.5547 0.30469-9.8281 2.5156-10.875 2.207-1.0469 4.793 0.9375 9.9648 4.9062 4.0547 3.1133 8.4414 6.5664 11.93 9.543 5.1094 4.3555 11.555 10.453 16.125 14.863 2.707 2.6172 4.0625 3.9219 4.0625 5.6211z" fill-rule="evenodd"/>
<text x="0.0" y="117.5" font-size="5.0" font-weight="bold" font-family="Arbeit Regular, Helvetica, Arial-Unicode, Arial, Sans-serif" fill="#000000">Created by &#52268;&#54840; &#51221;</text><text x="0.0" y="122.5" font-size="5.0" font-weight="bold" font-family="Arbeit Regular, Helvetica, Arial-Unicode, Arial, Sans-serif" fill="#000000">from Noun Project</text></svg>